<svg xmlns="http://www.w3.org/2000/svg" xmlns:xlink="http://www.w3.org/1999/xlink" width="150" zoomAndPan="magnify" viewBox="0 0 112.5 30.000001" height="40" preserveAspectRatio="xMidYMid meet" version="1.0"><defs><g/></defs><g fill="#ffffff" fill-opacity="1"><g transform="translate(7.901281, 20.499347)"><g><path d="M 11.90625 -6.828125 L 11.90625 -4.171875 C 11.582031 -2.734375 10.890625 -1.640625 9.828125 -0.890625 C 8.765625 -0.148438 7.582031 0.21875 6.28125 0.21875 C 4.632812 0.21875 3.234375 -0.394531 2.078125 -1.625 C 0.921875 -2.851562 0.34375 -4.335938 0.34375 -6.078125 C 0.34375 -7.847656 0.90625 -9.34375 2.03125 -10.5625 C 3.164062 -11.789062 4.582031 -12.40625 6.28125 -12.40625 C 8.257812 -12.40625 9.820312 -11.710938 10.96875 -10.328125 L 9.15625 -8.328125 C 8.507812 -9.367188 7.601562 -9.890625 6.4375 -9.890625 C 5.582031 -9.890625 4.851562 -9.515625 4.25 -8.765625 C 3.644531 -8.023438 3.34375 -7.128906 3.34375 -6.078125 C 3.34375 -5.046875 3.644531 -4.160156 4.25 -3.421875 C 4.851562 -2.691406 5.582031 -2.328125 6.4375 -2.328125 C 7.144531 -2.328125 7.757812 -2.539062 8.28125 -2.96875 C 8.8125 -3.40625 9.078125 -3.976562 9.078125 -4.6875 L 6.28125 -4.6875 L 6.28125 -6.828125 Z M 11.90625 -6.828125 "/></g></g></g><g fill="#ffffff" fill-opacity="1"><g transform="translate(20.137125, 20.499347)"><g><path d="M 0.890625 0 L 0.890625 -7.578125 L 3.5 -7.578125 L 3.5 -6.484375 L 3.53125 -6.484375 C 3.550781 -6.523438 3.582031 -6.570312 3.625 -6.625 C 3.664062 -6.6875 3.757812 -6.789062 3.90625 -6.9375 C 4.0625 -7.082031 4.222656 -7.210938 4.390625 -7.328125 C 4.554688 -7.453125 4.769531 -7.5625 5.03125 -7.65625 C 5.300781 -7.75 5.570312 -7.796875 5.84375 -7.796875 C 6.132812 -7.796875 6.414062 -7.753906 6.6875 -7.671875 C 6.96875 -7.597656 7.171875 -7.519531 7.296875 -7.4375 L 7.5 -7.328125 L 6.40625 -5.109375 C 6.082031 -5.378906 5.628906 -5.515625 5.046875 -5.515625 C 4.734375 -5.515625 4.460938 -5.445312 4.234375 -5.3125 C 4.003906 -5.175781 3.84375 -5.007812 3.75 -4.8125 C 3.664062 -4.613281 3.601562 -4.445312 3.5625 -4.3125 C 3.519531 -4.175781 3.5 -4.066406 3.5 -3.984375 L 3.5 0 Z M 0.890625 0 "/></g></g></g><g fill="#ffffff" fill-opacity="1"><g transform="translate(27.487486, 20.499347)"><g><path d="M 1.40625 -0.9375 C 0.695312 -1.707031 0.34375 -2.65625 0.34375 -3.78125 C 0.34375 -4.90625 0.695312 -5.851562 1.40625 -6.625 C 2.113281 -7.40625 3.015625 -7.796875 4.109375 -7.796875 C 5.109375 -7.796875 5.929688 -7.476562 6.578125 -6.84375 L 6.578125 -7.578125 L 9.203125 -7.578125 L 9.203125 0 L 6.609375 0 L 6.609375 -0.859375 L 6.578125 -0.859375 C 5.929688 -0.140625 5.109375 0.21875 4.109375 0.21875 C 3.015625 0.21875 2.113281 -0.164062 1.40625 -0.9375 Z M 3.625 -5.0625 C 3.28125 -4.726562 3.109375 -4.300781 3.109375 -3.78125 C 3.109375 -3.257812 3.269531 -2.832031 3.59375 -2.5 C 3.925781 -2.175781 4.359375 -2.015625 4.890625 -2.015625 C 5.398438 -2.015625 5.816406 -2.179688 6.140625 -2.515625 C 6.472656 -2.847656 6.640625 -3.269531 6.640625 -3.78125 C 6.640625 -4.300781 6.46875 -4.726562 6.125 -5.0625 C 5.789062 -5.394531 5.378906 -5.5625 4.890625 -5.5625 C 4.390625 -5.5625 3.96875 -5.394531 3.625 -5.0625 Z M 3.625 -5.0625 "/></g></g></g><g fill="#ffffff" fill-opacity="1"><g transform="translate(37.568406, 20.499347)"><g><path d="M 8.6875 -6.640625 C 9.394531 -5.867188 9.75 -4.921875 9.75 -3.796875 C 9.75 -2.671875 9.394531 -1.71875 8.6875 -0.9375 C 7.976562 -0.164062 7.078125 0.21875 5.984375 0.21875 C 4.972656 0.21875 4.144531 -0.09375 3.5 -0.71875 L 3.5 3.84375 L 0.890625 3.84375 L 0.890625 -7.578125 L 3.46875 -7.578125 L 3.46875 -6.71875 L 3.5 -6.71875 C 4.144531 -7.4375 4.972656 -7.796875 5.984375 -7.796875 C 7.078125 -7.796875 7.976562 -7.410156 8.6875 -6.640625 Z M 6.453125 -2.515625 C 6.796875 -2.847656 6.96875 -3.273438 6.96875 -3.796875 C 6.96875 -4.316406 6.804688 -4.738281 6.484375 -5.0625 C 6.160156 -5.394531 5.734375 -5.5625 5.203125 -5.5625 C 4.691406 -5.5625 4.269531 -5.394531 3.9375 -5.0625 C 3.601562 -4.726562 3.4375 -4.304688 3.4375 -3.796875 C 3.4375 -3.273438 3.601562 -2.847656 3.9375 -2.515625 C 4.28125 -2.179688 4.703125 -2.015625 5.203125 -2.015625 C 5.703125 -2.015625 6.117188 -2.179688 6.453125 -2.515625 Z M 6.453125 -2.515625 "/></g></g></g><g fill="#ffffff" fill-opacity="1"><g transform="translate(47.649326, 20.499347)"><g><path d="M 0.890625 0 L 0.890625 -12.703125 L 3.5 -12.703125 L 3.5 -6.78125 L 3.53125 -6.78125 C 4.207031 -7.457031 4.929688 -7.796875 5.703125 -7.796875 C 6.078125 -7.796875 6.445312 -7.742188 6.8125 -7.640625 C 7.1875 -7.546875 7.539062 -7.394531 7.875 -7.1875 C 8.21875 -6.976562 8.492188 -6.6875 8.703125 -6.3125 C 8.910156 -5.9375 9.015625 -5.492188 9.015625 -4.984375 L 9.015625 0 L 6.40625 0 L 6.40625 -4.28125 C 6.40625 -4.675781 6.28125 -5.019531 6.03125 -5.3125 C 5.78125 -5.613281 5.453125 -5.765625 5.046875 -5.765625 C 4.648438 -5.765625 4.289062 -5.609375 3.96875 -5.296875 C 3.65625 -4.992188 3.5 -4.65625 3.5 -4.28125 L 3.5 0 Z M 0.890625 0 "/></g></g></g><g fill="#ffffff" fill-opacity="1"><g transform="translate(57.405528, 20.499347)"><g><path d="M 1.125 -11.796875 C 1.4375 -12.097656 1.800781 -12.25 2.21875 -12.25 C 2.644531 -12.25 3.007812 -12.097656 3.3125 -11.796875 C 3.625 -11.492188 3.78125 -11.128906 3.78125 -10.703125 C 3.78125 -10.273438 3.625 -9.910156 3.3125 -9.609375 C 3.007812 -9.304688 2.644531 -9.15625 2.21875 -9.15625 C 1.800781 -9.15625 1.4375 -9.304688 1.125 -9.609375 C 0.820312 -9.910156 0.671875 -10.273438 0.671875 -10.703125 C 0.671875 -11.128906 0.820312 -11.492188 1.125 -11.796875 Z M 0.890625 -7.578125 L 0.890625 0 L 3.5 0 L 3.5 -7.578125 Z M 0.890625 -7.578125 "/></g></g></g><g fill="#ffffff" fill-opacity="1"><g transform="translate(61.862978, 20.499347)"><g><path d="M 0.125 -9.75 L 0.125 -12.1875 L 8.6875 -12.1875 L 8.6875 -9.75 L 5.78125 -9.75 L 5.78125 0 L 3.015625 0 L 3.015625 -9.75 Z M 0.125 -9.75 "/></g></g></g><g fill="#ffffff" fill-opacity="1"><g transform="translate(70.659797, 20.499347)"><g><path d="M 1.59375 -0.890625 C 0.757812 -1.640625 0.34375 -2.597656 0.34375 -3.765625 C 0.34375 -4.941406 0.78125 -5.90625 1.65625 -6.65625 C 2.53125 -7.414062 3.613281 -7.796875 4.90625 -7.796875 C 6.175781 -7.796875 7.242188 -7.414062 8.109375 -6.65625 C 8.984375 -5.894531 9.421875 -4.929688 9.421875 -3.765625 C 9.421875 -2.609375 8.992188 -1.65625 8.140625 -0.90625 C 7.285156 -0.15625 6.207031 0.21875 4.90625 0.21875 C 3.539062 0.21875 2.4375 -0.148438 1.59375 -0.890625 Z M 3.625 -5.0625 C 3.28125 -4.726562 3.109375 -4.300781 3.109375 -3.78125 C 3.109375 -3.257812 3.269531 -2.832031 3.59375 -2.5 C 3.925781 -2.175781 4.359375 -2.015625 4.890625 -2.015625 C 5.398438 -2.015625 5.816406 -2.179688 6.140625 -2.515625 C 6.472656 -2.847656 6.640625 -3.269531 6.640625 -3.78125 C 6.640625 -4.300781 6.46875 -4.726562 6.125 -5.0625 C 5.789062 -5.394531 5.378906 -5.5625 4.890625 -5.5625 C 4.390625 -5.5625 3.96875 -5.394531 3.625 -5.0625 Z M 3.625 -5.0625 "/></g></g></g><g fill="#ffffff" fill-opacity="1"><g transform="translate(80.415997, 20.499347)"><g><path d="M 0.890625 0 L 0.890625 -7.578125 L 3.5 -7.578125 L 3.5 -6.78125 L 3.53125 -6.78125 C 4.207031 -7.457031 4.929688 -7.796875 5.703125 -7.796875 C 6.078125 -7.796875 6.445312 -7.742188 6.8125 -7.640625 C 7.1875 -7.546875 7.539062 -7.394531 7.875 -7.1875 C 8.21875 -6.976562 8.492188 -6.6875 8.703125 -6.3125 C 8.910156 -5.9375 9.015625 -5.492188 9.015625 -4.984375 L 9.015625 0 L 6.40625 0 L 6.40625 -4.28125 C 6.40625 -4.675781 6.28125 -5.019531 6.03125 -5.3125 C 5.78125 -5.613281 5.453125 -5.765625 5.046875 -5.765625 C 4.648438 -5.765625 4.289062 -5.609375 3.96875 -5.296875 C 3.65625 -4.992188 3.5 -4.65625 3.5 -4.28125 L 3.5 0 Z M 0.890625 0 "/></g></g></g><g fill="#ffffff" fill-opacity="1"><g transform="translate(90.172196, 20.499347)"><g><path d="M 1.125 -11.796875 C 1.4375 -12.097656 1.800781 -12.25 2.21875 -12.25 C 2.644531 -12.25 3.007812 -12.097656 3.3125 -11.796875 C 3.625 -11.492188 3.78125 -11.128906 3.78125 -10.703125 C 3.78125 -10.273438 3.625 -9.910156 3.3125 -9.609375 C 3.007812 -9.304688 2.644531 -9.15625 2.21875 -9.15625 C 1.800781 -9.15625 1.4375 -9.304688 1.125 -9.609375 C 0.820312 -9.910156 0.671875 -10.273438 0.671875 -10.703125 C 0.671875 -11.128906 0.820312 -11.492188 1.125 -11.796875 Z M 0.890625 -7.578125 L 0.890625 0 L 3.5 0 L 3.5 -7.578125 Z M 0.890625 -7.578125 "/></g></g></g><g fill="#ffffff" fill-opacity="1"><g transform="translate(94.629645, 20.499347)"><g><path d="M 4.921875 -5.65625 C 4.421875 -5.65625 3.992188 -5.472656 3.640625 -5.109375 C 3.285156 -4.742188 3.109375 -4.304688 3.109375 -3.796875 C 3.109375 -3.273438 3.285156 -2.832031 3.640625 -2.46875 C 3.992188 -2.101562 4.421875 -1.921875 4.921875 -1.921875 C 5.148438 -1.921875 5.367188 -1.945312 5.578125 -2 C 5.796875 -2.0625 5.953125 -2.125 6.046875 -2.1875 L 6.1875 -2.28125 L 7.078125 -0.453125 C 7.003906 -0.410156 6.90625 -0.347656 6.78125 -0.265625 C 6.65625 -0.191406 6.375 -0.09375 5.9375 0.03125 C 5.5 0.15625 5.03125 0.21875 4.53125 0.21875 C 3.414062 0.21875 2.4375 -0.171875 1.59375 -0.953125 C 0.757812 -1.734375 0.34375 -2.671875 0.34375 -3.765625 C 0.34375 -4.867188 0.757812 -5.816406 1.59375 -6.609375 C 2.4375 -7.398438 3.414062 -7.796875 4.53125 -7.796875 C 5.03125 -7.796875 5.492188 -7.734375 5.921875 -7.609375 C 6.347656 -7.492188 6.648438 -7.378906 6.828125 -7.265625 L 7.078125 -7.09375 L 6.1875 -5.296875 C 5.863281 -5.535156 5.441406 -5.65625 4.921875 -5.65625 Z M 4.921875 -5.65625 "/></g></g></g><path stroke-linecap="butt" transform="matrix(0.204853, 0, 0, 0.204853, 3.319508, 23.172243)" fill="none" stroke-linejoin="miter" d="M 0.00392572 4.99417 L 84.439551 4.99417 " stroke="#ffffff" stroke-width="10" stroke-opacity="1" stroke-miterlimit="4"/><path stroke-linecap="butt" transform="matrix(0, 0.204853, -0.204853, 0, 5.366986, 7.714408)" fill="none" stroke-linejoin="miter" d="M 0.00212506 4.994981 L 82.454619 4.994981 " stroke="#ffffff" stroke-width="10" stroke-opacity="1" stroke-miterlimit="4"/><path stroke-linecap="butt" transform="matrix(-0.204853, 0, 0, -0.204853, 108.847515, 5.82033)" fill="none" stroke-linejoin="miter" d="M -0.00069097 4.996053 L 84.434934 4.996053 " stroke="#ffffff" stroke-width="10" stroke-opacity="1" stroke-miterlimit="4"/><path stroke-linecap="butt" transform="matrix(0, -0.204853, 0.204853, 0, 106.800039, 21.278164)" fill="none" stroke-linejoin="miter" d="M 0.00400562 4.999588 L 82.456499 4.999588 " stroke="#ffffff" stroke-width="10" stroke-opacity="1" stroke-miterlimit="4"/></svg>