<svg xmlns="http://www.w3.org/2000/svg" xmlns:xlink="http://www.w3.org/1999/xlink" width="500" zoomAndPan="magnify" viewBox="0 0 375 374.999991" height="500" preserveAspectRatio="xMidYMid meet" version="1.0"><defs><clipPath id="a47a60b69b"><path d="M 101 60 L 273 60 L 273 370.675781 L 101 370.675781 Z M 101 60 " clip-rule="nonzero"/></clipPath><clipPath id="8ab7533bf4"><path d="M 27.527344 5 L 347 5 L 347 184 L 27.527344 184 Z M 27.527344 5 " clip-rule="nonzero"/></clipPath></defs><g clip-path="url(#a47a60b69b)"><path fill="#ffffff" d="M 178.148438 193.625 C 178.425781 193.542969 178.683594 193.421875 178.925781 193.253906 C 179.164062 193.089844 179.371094 192.890625 179.546875 192.660156 C 179.722656 192.425781 179.855469 192.175781 179.949219 191.898438 C 180.039062 191.621094 180.085938 191.339844 180.085938 191.050781 L 180.085938 63.210938 C 180.085938 62.800781 180.007812 62.402344 179.851562 62.023438 C 179.695312 61.644531 179.46875 61.308594 179.179688 61.015625 C 178.886719 60.722656 178.550781 60.5 178.171875 60.34375 C 177.789062 60.183594 177.394531 60.105469 176.984375 60.105469 L 173.585938 60.105469 C 173.175781 60.105469 172.773438 60.164062 172.382812 60.285156 C 171.992188 60.402344 171.625 60.578125 171.285156 60.804688 C 170.945312 61.035156 170.644531 61.304688 170.382812 61.621094 C 170.125 61.941406 169.917969 62.289062 169.761719 62.667969 L 103.054688 224.554688 C 102.347656 226.261719 101.976562 228.039062 101.929688 229.886719 C 101.882812 231.730469 102.171875 233.523438 102.789062 235.265625 L 121.5625 288.035156 L 115.789062 288.035156 C 115.417969 288.039062 115.050781 288.074219 114.6875 288.144531 C 114.324219 288.21875 113.972656 288.328125 113.628906 288.46875 C 113.285156 288.609375 112.960938 288.785156 112.652344 288.988281 C 112.347656 289.195312 112.0625 289.429688 111.800781 289.691406 C 111.535156 289.953125 111.304688 290.238281 111.097656 290.546875 C 110.890625 290.855469 110.71875 291.179688 110.574219 291.523438 C 110.433594 291.863281 110.324219 292.21875 110.253906 292.582031 C 110.179688 292.945312 110.144531 293.308594 110.144531 293.679688 L 110.144531 316.621094 C 110.144531 316.992188 110.179688 317.359375 110.253906 317.722656 C 110.324219 318.085938 110.433594 318.4375 110.574219 318.78125 C 110.71875 319.121094 110.890625 319.449219 111.097656 319.753906 C 111.304688 320.0625 111.535156 320.347656 111.800781 320.609375 C 112.0625 320.871094 112.347656 321.105469 112.652344 321.3125 C 112.960938 321.519531 113.285156 321.691406 113.628906 321.835938 C 113.972656 321.976562 114.324219 322.082031 114.6875 322.15625 C 115.050781 322.230469 115.417969 322.265625 115.789062 322.265625 L 119.871094 322.265625 L 119.871094 364.632812 C 119.871094 365.007812 119.90625 365.375 119.980469 365.742188 C 120.054688 366.109375 120.160156 366.464844 120.304688 366.808594 C 120.449219 367.15625 120.625 367.480469 120.832031 367.792969 C 121.039062 368.101562 121.273438 368.390625 121.539062 368.65625 C 121.804688 368.917969 122.089844 369.15625 122.402344 369.363281 C 122.710938 369.570312 123.039062 369.746094 123.382812 369.890625 C 123.730469 370.03125 124.085938 370.140625 124.453125 370.214844 C 124.816406 370.285156 125.1875 370.324219 125.5625 370.324219 L 248.980469 370.324219 C 249.351562 370.324219 249.722656 370.285156 250.089844 370.214844 C 250.457031 370.140625 250.8125 370.03125 251.15625 369.890625 C 251.5 369.746094 251.828125 369.570312 252.140625 369.363281 C 252.449219 369.15625 252.738281 368.917969 253 368.65625 C 253.265625 368.390625 253.5 368.101562 253.710938 367.792969 C 253.917969 367.480469 254.09375 367.15625 254.234375 366.808594 C 254.378906 366.464844 254.488281 366.109375 254.558594 365.742188 C 254.632812 365.375 254.667969 365.007812 254.671875 364.632812 L 254.671875 332.613281 C 254.671875 332.265625 254.605469 331.933594 254.46875 331.609375 C 254.335938 331.289062 254.148438 331.003906 253.902344 330.757812 C 253.65625 330.511719 253.371094 330.324219 253.050781 330.191406 C 252.730469 330.058594 252.394531 329.992188 252.046875 329.992188 C 251.699219 329.992188 251.363281 330.058594 251.042969 330.191406 C 250.722656 330.324219 250.4375 330.511719 250.191406 330.757812 C 249.945312 331.003906 249.757812 331.289062 249.625 331.609375 C 249.492188 331.933594 249.425781 332.265625 249.425781 332.613281 L 249.425781 364.632812 C 249.425781 364.753906 249.378906 364.859375 249.292969 364.945312 C 249.207031 365.035156 249.101562 365.078125 248.980469 365.078125 L 125.5625 365.078125 C 125.4375 365.078125 125.332031 365.035156 125.246094 364.945312 C 125.160156 364.859375 125.117188 364.753906 125.117188 364.632812 L 125.117188 322.265625 L 258.753906 322.265625 C 259.125 322.265625 259.488281 322.230469 259.851562 322.15625 C 260.214844 322.082031 260.570312 321.976562 260.910156 321.835938 C 261.253906 321.691406 261.578125 321.519531 261.886719 321.3125 C 262.195312 321.105469 262.480469 320.871094 262.742188 320.609375 C 263.003906 320.347656 263.238281 320.0625 263.445312 319.753906 C 263.648438 319.449219 263.824219 319.121094 263.964844 318.78125 C 264.109375 318.4375 264.214844 318.085938 264.289062 317.722656 C 264.359375 317.359375 264.394531 316.992188 264.398438 316.621094 L 264.398438 293.679688 C 264.394531 293.308594 264.359375 292.945312 264.289062 292.582031 C 264.214844 292.21875 264.109375 291.863281 263.964844 291.523438 C 263.824219 291.179688 263.648438 290.855469 263.445312 290.546875 C 263.238281 290.238281 263.003906 289.953125 262.742188 289.691406 C 262.480469 289.429688 262.195312 289.195312 261.886719 288.988281 C 261.578125 288.785156 261.253906 288.609375 260.910156 288.46875 C 260.570312 288.328125 260.214844 288.21875 259.851562 288.144531 C 259.488281 288.074219 259.125 288.039062 258.753906 288.035156 L 252.980469 288.035156 L 271.75 235.265625 C 272.371094 233.523438 272.65625 231.730469 272.609375 229.886719 C 272.566406 228.039062 272.191406 226.261719 271.488281 224.554688 L 204.78125 62.667969 C 204.625 62.289062 204.414062 61.941406 204.15625 61.621094 C 203.898438 61.304688 203.597656 61.035156 203.257812 60.804688 C 202.917969 60.578125 202.550781 60.402344 202.160156 60.285156 C 201.765625 60.164062 201.367188 60.105469 200.957031 60.105469 L 197.558594 60.105469 C 197.144531 60.105469 196.75 60.183594 196.371094 60.34375 C 195.988281 60.5 195.652344 60.726562 195.363281 61.015625 C 195.070312 61.308594 194.847656 61.644531 194.6875 62.023438 C 194.53125 62.402344 194.453125 62.800781 194.453125 63.210938 L 194.453125 191.046875 C 194.453125 191.339844 194.5 191.621094 194.59375 191.898438 C 194.6875 192.175781 194.820312 192.429688 194.996094 192.660156 C 195.171875 192.894531 195.378906 193.09375 195.621094 193.257812 C 195.859375 193.421875 196.121094 193.546875 196.398438 193.625 C 198.117188 194.136719 199.777344 194.785156 201.386719 195.574219 C 202.996094 196.363281 204.527344 197.28125 205.980469 198.328125 C 207.433594 199.375 208.792969 200.535156 210.050781 201.808594 C 211.3125 203.082031 212.457031 204.449219 213.488281 205.914062 C 214.519531 207.378906 215.417969 208.921875 216.191406 210.539062 C 216.960938 212.152344 217.59375 213.824219 218.085938 215.546875 C 218.578125 217.269531 218.925781 219.019531 219.121094 220.800781 C 219.320312 222.578125 219.371094 224.363281 219.269531 226.152344 C 218.40625 241.90625 204.292969 255.769531 188.527344 256.371094 C 187.5625 256.410156 186.59375 256.402344 185.628906 256.351562 C 184.664062 256.304688 183.703125 256.210938 182.75 256.074219 C 181.792969 255.9375 180.84375 255.757812 179.902344 255.539062 C 178.964844 255.316406 178.035156 255.050781 177.117188 254.746094 C 176.203125 254.4375 175.300781 254.09375 174.417969 253.703125 C 173.53125 253.316406 172.664062 252.890625 171.820312 252.425781 C 170.972656 251.960938 170.148438 251.457031 169.347656 250.914062 C 168.546875 250.375 167.773438 249.800781 167.023438 249.191406 C 166.273438 248.578125 165.554688 247.9375 164.863281 247.261719 C 164.171875 246.585938 163.511719 245.878906 162.886719 245.144531 C 162.257812 244.410156 161.667969 243.648438 161.109375 242.859375 C 160.550781 242.070312 160.03125 241.257812 159.546875 240.421875 C 159.058594 239.585938 158.613281 238.730469 158.207031 237.855469 C 157.800781 236.980469 157.433594 236.085938 157.105469 235.175781 C 156.78125 234.265625 156.496094 233.34375 156.253906 232.410156 C 156.007812 231.476562 155.808594 230.53125 155.652344 229.578125 C 155.492188 228.625 155.378906 227.664062 155.308594 226.703125 C 155.238281 225.738281 155.210938 224.773438 155.226562 223.808594 C 155.242188 222.84375 155.300781 221.878906 155.40625 220.917969 C 155.507812 219.957031 155.65625 219.003906 155.84375 218.054688 C 156.035156 217.109375 156.265625 216.171875 156.542969 215.246094 C 156.816406 214.320312 157.132812 213.40625 157.488281 212.507812 C 157.84375 211.613281 158.242188 210.730469 158.679688 209.871094 C 159.113281 209.007812 159.589844 208.167969 160.101562 207.347656 C 160.613281 206.527344 161.164062 205.734375 161.746094 204.964844 C 162.332031 204.195312 162.949219 203.453125 163.601562 202.742188 C 164.25 202.027344 164.933594 201.34375 165.648438 200.691406 C 166.359375 200.039062 167.101562 199.421875 167.871094 198.835938 C 168.640625 198.253906 169.433594 197.703125 170.25 197.191406 C 171.070312 196.679688 171.910156 196.203125 172.773438 195.765625 C 173.632812 195.328125 174.511719 194.929688 175.410156 194.574219 C 176.308594 194.214844 177.222656 193.898438 178.148438 193.625 Z M 259.152344 293.679688 L 259.152344 316.621094 C 259.152344 316.730469 259.113281 316.824219 259.035156 316.902344 C 258.957031 316.980469 258.863281 317.019531 258.753906 317.019531 L 115.789062 317.019531 C 115.679688 317.019531 115.585938 316.980469 115.507812 316.902344 C 115.429688 316.824219 115.390625 316.730469 115.390625 316.621094 L 115.390625 293.679688 C 115.390625 293.570312 115.429688 293.476562 115.507812 293.398438 C 115.585938 293.320312 115.679688 293.28125 115.789062 293.28125 L 258.753906 293.28125 C 258.863281 293.28125 258.957031 293.320312 259.035156 293.398438 C 259.113281 293.476562 259.152344 293.570312 259.152344 293.679688 Z M 259.152344 293.679688 " fill-opacity="1" fill-rule="nonzero"/></g><path fill="#ffffff" d="M 138.941406 31.167969 C 136.101562 32.339844 133.304688 33.609375 130.554688 34.980469 C 127.804688 36.351562 125.109375 37.824219 122.464844 39.390625 C 119.820312 40.957031 117.238281 42.621094 114.714844 44.375 C 112.191406 46.128906 109.738281 47.972656 107.347656 49.90625 C 104.957031 51.839844 102.640625 53.855469 100.398438 55.957031 C 98.15625 58.058594 95.992188 60.238281 93.90625 62.496094 C 91.824219 64.753906 89.824219 67.085938 87.90625 69.488281 C 85.992188 71.890625 84.164062 74.359375 82.429688 76.894531 C 80.691406 79.433594 79.050781 82.027344 77.5 84.683594 C 75.953125 87.335938 74.503906 90.042969 73.152344 92.804688 C 71.796875 95.5625 70.546875 98.367188 69.398438 101.21875 C 68.25 104.070312 67.207031 106.957031 66.269531 109.882812 C 65.328125 112.8125 64.496094 115.765625 63.773438 118.753906 C 63.046875 121.742188 62.433594 124.75 61.925781 127.78125 C 61.417969 130.8125 61.023438 133.859375 60.738281 136.917969 C 60.453125 139.976562 60.277344 143.042969 60.214844 146.117188 L 49.554688 146.117188 C 49.183594 146.117188 48.8125 146.152344 48.449219 146.226562 C 48.082031 146.300781 47.726562 146.40625 47.382812 146.550781 C 47.039062 146.691406 46.714844 146.867188 46.402344 147.074219 C 46.09375 147.28125 45.808594 147.515625 45.542969 147.78125 C 45.28125 148.042969 45.046875 148.332031 44.839844 148.640625 C 44.632812 148.949219 44.457031 149.277344 44.3125 149.621094 C 44.171875 149.964844 44.0625 150.320312 43.992188 150.683594 C 43.917969 151.050781 43.882812 151.417969 43.878906 151.792969 L 43.878906 178.300781 C 43.882812 178.671875 43.917969 179.042969 43.992188 179.40625 C 44.0625 179.773438 44.171875 180.128906 44.3125 180.472656 C 44.457031 180.816406 44.632812 181.144531 44.839844 181.453125 C 45.046875 181.761719 45.28125 182.046875 45.542969 182.3125 C 45.808594 182.574219 46.09375 182.8125 46.402344 183.019531 C 46.714844 183.226562 47.039062 183.398438 47.382812 183.542969 C 47.726562 183.683594 48.082031 183.792969 48.449219 183.867188 C 48.8125 183.9375 49.183594 183.976562 49.554688 183.976562 L 76.066406 183.976562 C 76.4375 183.976562 76.804688 183.9375 77.171875 183.867188 C 77.535156 183.792969 77.890625 183.683594 78.234375 183.542969 C 78.578125 183.398438 78.90625 183.226562 79.214844 183.019531 C 79.527344 182.8125 79.8125 182.574219 80.074219 182.3125 C 80.339844 182.046875 80.574219 181.761719 80.78125 181.453125 C 80.988281 181.144531 81.164062 180.816406 81.304688 180.472656 C 81.449219 180.128906 81.558594 179.773438 81.628906 179.40625 C 81.703125 179.042969 81.738281 178.671875 81.738281 178.300781 L 81.738281 151.792969 C 81.738281 151.417969 81.703125 151.050781 81.628906 150.683594 C 81.558594 150.320312 81.449219 149.964844 81.304688 149.621094 C 81.164062 149.277344 80.988281 148.949219 80.78125 148.640625 C 80.574219 148.332031 80.339844 148.042969 80.074219 147.78125 C 79.8125 147.515625 79.527344 147.28125 79.214844 147.074219 C 78.90625 146.867188 78.578125 146.691406 78.234375 146.550781 C 77.890625 146.40625 77.535156 146.300781 77.171875 146.226562 C 76.804688 146.152344 76.4375 146.117188 76.066406 146.117188 L 65.464844 146.117188 C 65.527344 143.171875 65.695312 140.234375 65.972656 137.304688 C 66.246094 134.375 66.628906 131.457031 67.117188 128.550781 C 67.605469 125.648438 68.195312 122.765625 68.890625 119.90625 C 69.589844 117.046875 70.386719 114.214844 71.289062 111.410156 C 72.191406 108.609375 73.191406 105.839844 74.292969 103.109375 C 75.394531 100.378906 76.59375 97.695312 77.890625 95.050781 C 79.1875 92.40625 80.578125 89.816406 82.0625 87.273438 C 83.546875 84.730469 85.121094 82.246094 86.789062 79.816406 C 88.453125 77.386719 90.203125 75.023438 92.039062 72.722656 C 93.875 70.417969 95.792969 68.1875 97.789062 66.023438 C 99.789062 63.863281 101.863281 61.773438 104.011719 59.761719 C 106.160156 57.75 108.378906 55.820312 110.667969 53.96875 C 112.957031 52.117188 115.3125 50.347656 117.726562 48.667969 C 120.144531 46.988281 122.621094 45.394531 125.152344 43.894531 C 127.683594 42.394531 130.269531 40.984375 132.902344 39.671875 C 135.539062 38.355469 138.214844 37.140625 140.9375 36.019531 C 141.261719 35.886719 141.546875 35.699219 141.792969 35.453125 C 142.039062 35.207031 142.226562 34.925781 142.363281 34.601562 C 142.496094 34.28125 142.5625 33.949219 142.5625 33.601562 C 142.566406 33.253906 142.5 32.917969 142.367188 32.597656 C 142.234375 32.273438 142.046875 31.988281 141.800781 31.742188 C 141.554688 31.496094 141.269531 31.308594 140.949219 31.171875 C 140.628906 31.039062 140.292969 30.972656 139.945312 30.972656 C 139.597656 30.96875 139.265625 31.035156 138.941406 31.167969 Z M 76.066406 151.363281 C 76.183594 151.363281 76.285156 151.40625 76.367188 151.488281 C 76.453125 151.570312 76.492188 151.671875 76.492188 151.792969 L 76.492188 178.300781 C 76.492188 178.417969 76.453125 178.519531 76.367188 178.605469 C 76.285156 178.6875 76.183594 178.730469 76.066406 178.730469 L 49.554688 178.730469 C 49.4375 178.730469 49.335938 178.6875 49.253906 178.605469 C 49.167969 178.519531 49.125 178.417969 49.125 178.300781 L 49.125 151.792969 C 49.125 151.671875 49.167969 151.570312 49.253906 151.488281 C 49.335938 151.40625 49.4375 151.363281 49.554688 151.363281 Z M 76.066406 151.363281 " fill-opacity="1" fill-rule="nonzero"/><g clip-path="url(#8ab7533bf4)"><path fill="#ffffff" d="M 328.039062 5.351562 C 326.90625 5.351562 325.78125 5.453125 324.667969 5.65625 C 323.554688 5.859375 322.46875 6.160156 321.410156 6.554688 C 320.347656 6.953125 319.332031 7.441406 318.359375 8.019531 C 317.386719 8.601562 316.476562 9.261719 315.621094 10.003906 C 314.769531 10.746094 313.988281 11.558594 313.277344 12.441406 C 312.570312 13.324219 311.945312 14.265625 311.40625 15.257812 C 310.867188 16.253906 310.417969 17.289062 310.0625 18.363281 C 309.707031 19.4375 309.453125 20.535156 309.292969 21.65625 L 206.199219 21.65625 L 206.199219 11.023438 C 206.199219 10.652344 206.164062 10.285156 206.089844 9.917969 C 206.015625 9.554688 205.910156 9.199219 205.765625 8.855469 C 205.625 8.511719 205.449219 8.183594 205.242188 7.875 C 205.035156 7.5625 204.800781 7.277344 204.535156 7.015625 C 204.273438 6.75 203.988281 6.515625 203.675781 6.308594 C 203.367188 6.101562 203.039062 5.925781 202.695312 5.785156 C 202.351562 5.640625 201.996094 5.53125 201.632812 5.460938 C 201.265625 5.386719 200.898438 5.351562 200.527344 5.351562 L 174.015625 5.351562 C 173.644531 5.351562 173.273438 5.386719 172.910156 5.460938 C 172.542969 5.53125 172.1875 5.640625 171.84375 5.785156 C 171.5 5.925781 171.171875 6.101562 170.863281 6.308594 C 170.554688 6.515625 170.269531 6.75 170.003906 7.015625 C 169.742188 7.277344 169.503906 7.5625 169.296875 7.875 C 169.089844 8.183594 168.917969 8.511719 168.773438 8.855469 C 168.632812 9.199219 168.523438 9.554688 168.449219 9.917969 C 168.378906 10.285156 168.339844 10.652344 168.339844 11.023438 L 168.339844 21.65625 L 65.246094 21.65625 C 65.136719 20.875 64.980469 20.101562 64.773438 19.335938 C 64.566406 18.574219 64.3125 17.828125 64.015625 17.097656 C 63.714844 16.363281 63.371094 15.65625 62.980469 14.96875 C 62.589844 14.277344 62.160156 13.617188 61.691406 12.984375 C 61.21875 12.347656 60.707031 11.746094 60.160156 11.175781 C 59.613281 10.605469 59.035156 10.070312 58.417969 9.574219 C 57.804688 9.074219 57.164062 8.617188 56.492188 8.203125 C 55.820312 7.785156 55.125 7.410156 54.40625 7.082031 C 53.6875 6.75 52.953125 6.464844 52.199219 6.226562 C 51.445312 5.988281 50.679688 5.800781 49.902344 5.65625 C 49.125 5.515625 48.339844 5.421875 47.550781 5.378906 C 46.761719 5.335938 45.972656 5.339844 45.183594 5.394531 C 44.398438 5.449219 43.613281 5.554688 42.839844 5.707031 C 42.0625 5.859375 41.300781 6.0625 40.550781 6.308594 C 39.800781 6.558594 39.066406 6.851562 38.355469 7.191406 C 37.640625 7.53125 36.953125 7.914062 36.285156 8.34375 C 35.621094 8.769531 34.984375 9.234375 34.375 9.742188 C 33.769531 10.246094 33.195312 10.789062 32.65625 11.367188 C 32.117188 11.945312 31.617188 12.554688 31.15625 13.195312 C 30.691406 13.835938 30.269531 14.503906 29.890625 15.195312 C 29.511719 15.890625 29.175781 16.605469 28.886719 17.339844 C 28.597656 18.074219 28.355469 18.828125 28.160156 19.59375 C 27.964844 20.359375 27.816406 21.132812 27.71875 21.917969 C 27.621094 22.703125 27.570312 23.488281 27.570312 24.28125 C 27.570312 25.070312 27.621094 25.855469 27.71875 26.640625 C 27.816406 27.425781 27.964844 28.199219 28.160156 28.96875 C 28.355469 29.734375 28.597656 30.484375 28.886719 31.21875 C 29.175781 31.953125 29.511719 32.667969 29.890625 33.363281 C 30.269531 34.054688 30.691406 34.722656 31.15625 35.363281 C 31.617188 36.003906 32.117188 36.613281 32.65625 37.191406 C 33.195312 37.769531 33.769531 38.3125 34.375 38.816406 C 34.984375 39.324219 35.621094 39.789062 36.285156 40.21875 C 36.953125 40.644531 37.640625 41.027344 38.355469 41.367188 C 39.066406 41.707031 39.800781 42 40.550781 42.25 C 41.300781 42.5 42.0625 42.699219 42.839844 42.851562 C 43.613281 43.003906 44.398438 43.109375 45.183594 43.164062 C 45.972656 43.21875 46.761719 43.222656 47.550781 43.179688 C 48.339844 43.136719 49.125 43.042969 49.902344 42.902344 C 50.679688 42.757812 51.445312 42.570312 52.199219 42.332031 C 52.953125 42.09375 53.6875 41.808594 54.40625 41.480469 C 55.125 41.148438 55.820312 40.773438 56.492188 40.359375 C 57.164062 39.941406 57.804688 39.484375 58.417969 38.984375 C 59.035156 38.488281 59.613281 37.953125 60.160156 37.382812 C 60.707031 36.8125 61.21875 36.210938 61.691406 35.574219 C 62.160156 34.941406 62.589844 34.28125 62.980469 33.59375 C 63.371094 32.902344 63.714844 32.195312 64.015625 31.464844 C 64.3125 30.730469 64.566406 29.984375 64.773438 29.222656 C 64.980469 28.457031 65.136719 27.683594 65.246094 26.902344 L 168.339844 26.902344 L 168.339844 37.535156 C 168.339844 37.90625 168.378906 38.277344 168.449219 38.640625 C 168.523438 39.007812 168.632812 39.359375 168.773438 39.707031 C 168.917969 40.050781 169.089844 40.375 169.296875 40.6875 C 169.503906 40.996094 169.742188 41.28125 170.003906 41.546875 C 170.269531 41.808594 170.554688 42.042969 170.863281 42.25 C 171.171875 42.457031 171.5 42.632812 171.84375 42.777344 C 172.1875 42.917969 172.542969 43.027344 172.910156 43.097656 C 173.273438 43.171875 173.644531 43.207031 174.015625 43.210938 L 200.527344 43.210938 C 200.898438 43.207031 201.265625 43.171875 201.632812 43.097656 C 201.996094 43.027344 202.351562 42.917969 202.695312 42.777344 C 203.039062 42.632812 203.367188 42.457031 203.675781 42.25 C 203.988281 42.042969 204.273438 41.808594 204.535156 41.546875 C 204.800781 41.28125 205.035156 40.996094 205.242188 40.6875 C 205.449219 40.375 205.625 40.050781 205.765625 39.707031 C 205.910156 39.359375 206.015625 39.007812 206.089844 38.640625 C 206.164062 38.277344 206.199219 37.90625 206.199219 37.535156 L 206.199219 28.367188 C 264.214844 37.414062 307.816406 87.285156 309.078125 146.117188 L 298.476562 146.117188 C 298.101562 146.117188 297.734375 146.152344 297.367188 146.226562 C 297.003906 146.300781 296.648438 146.40625 296.304688 146.550781 C 295.960938 146.691406 295.632812 146.867188 295.324219 147.074219 C 295.015625 147.28125 294.726562 147.515625 294.464844 147.78125 C 294.203125 148.042969 293.964844 148.332031 293.757812 148.640625 C 293.550781 148.949219 293.378906 149.277344 293.234375 149.621094 C 293.089844 149.964844 292.984375 150.320312 292.910156 150.683594 C 292.839844 151.050781 292.800781 151.417969 292.800781 151.792969 L 292.800781 178.300781 C 292.800781 178.671875 292.839844 179.042969 292.910156 179.40625 C 292.984375 179.773438 293.09375 180.128906 293.234375 180.472656 C 293.378906 180.816406 293.550781 181.144531 293.757812 181.453125 C 293.964844 181.761719 294.203125 182.046875 294.464844 182.3125 C 294.726562 182.574219 295.015625 182.8125 295.324219 183.019531 C 295.632812 183.226562 295.960938 183.398438 296.304688 183.542969 C 296.648438 183.683594 297.003906 183.792969 297.367188 183.867188 C 297.734375 183.9375 298.101562 183.976562 298.476562 183.976562 L 324.984375 183.976562 C 325.359375 183.976562 325.726562 183.9375 326.09375 183.867188 C 326.457031 183.792969 326.8125 183.683594 327.15625 183.542969 C 327.5 183.398438 327.828125 183.226562 328.136719 183.019531 C 328.445312 182.8125 328.734375 182.574219 328.996094 182.3125 C 329.261719 182.046875 329.496094 181.761719 329.703125 181.453125 C 329.910156 181.144531 330.082031 180.816406 330.226562 180.472656 C 330.371094 180.128906 330.476562 179.773438 330.550781 179.40625 C 330.625 179.042969 330.660156 178.671875 330.660156 178.300781 L 330.660156 151.792969 C 330.660156 151.417969 330.625 151.050781 330.550781 150.683594 C 330.476562 150.320312 330.371094 149.964844 330.226562 149.621094 C 330.085938 149.277344 329.910156 148.949219 329.703125 148.640625 C 329.496094 148.332031 329.261719 148.042969 328.996094 147.78125 C 328.734375 147.515625 328.445312 147.28125 328.136719 147.074219 C 327.828125 146.867188 327.5 146.691406 327.15625 146.550781 C 326.8125 146.40625 326.457031 146.300781 326.09375 146.226562 C 325.726562 146.152344 325.359375 146.117188 324.984375 146.117188 L 314.324219 146.117188 C 314.253906 142.777344 314.054688 139.445312 313.722656 136.121094 C 313.390625 132.796875 312.925781 129.488281 312.335938 126.203125 C 311.742188 122.914062 311.019531 119.65625 310.171875 116.425781 C 309.320312 113.195312 308.347656 110 307.246094 106.847656 C 306.144531 103.691406 304.921875 100.585938 303.574219 97.53125 C 302.226562 94.472656 300.765625 91.472656 299.179688 88.53125 C 297.597656 85.589844 295.902344 82.710938 294.09375 79.90625 C 292.285156 77.097656 290.367188 74.363281 288.34375 71.707031 C 286.320312 69.046875 284.191406 66.476562 281.964844 63.984375 C 279.738281 61.496094 277.417969 59.097656 275 56.789062 C 272.582031 54.484375 270.082031 52.273438 267.488281 50.164062 C 264.898438 48.054688 262.230469 46.050781 259.480469 44.152344 C 256.734375 42.253906 253.914062 40.464844 251.023438 38.789062 C 248.136719 37.113281 245.183594 35.550781 242.171875 34.109375 C 239.160156 32.664062 236.09375 31.339844 232.976562 30.136719 C 229.859375 28.933594 226.703125 27.855469 223.5 26.902344 L 309.292969 26.902344 C 309.378906 27.5 309.488281 28.089844 309.628906 28.675781 C 309.769531 29.257812 309.933594 29.835938 310.128906 30.40625 C 310.324219 30.976562 310.546875 31.535156 310.792969 32.082031 C 311.042969 32.628906 311.316406 33.164062 311.613281 33.6875 C 311.914062 34.207031 312.238281 34.714844 312.585938 35.207031 C 312.933594 35.699219 313.300781 36.171875 313.695312 36.628906 C 314.085938 37.082031 314.5 37.519531 314.933594 37.9375 C 315.367188 38.351562 315.820312 38.746094 316.292969 39.121094 C 316.765625 39.492188 317.253906 39.84375 317.757812 40.171875 C 318.261719 40.496094 318.78125 40.800781 319.316406 41.078125 C 319.851562 41.355469 320.398438 41.605469 320.953125 41.832031 C 321.511719 42.054688 322.078125 42.253906 322.65625 42.425781 C 323.234375 42.59375 323.816406 42.738281 324.40625 42.855469 C 324.996094 42.96875 325.59375 43.058594 326.191406 43.117188 C 326.789062 43.175781 327.390625 43.203125 327.992188 43.207031 C 328.59375 43.207031 329.195312 43.179688 329.792969 43.125 C 330.390625 43.070312 330.988281 42.984375 331.578125 42.871094 C 332.167969 42.761719 332.753906 42.621094 333.332031 42.453125 C 333.90625 42.28125 334.476562 42.085938 335.035156 41.867188 C 335.59375 41.644531 336.140625 41.394531 336.675781 41.121094 C 337.210938 40.84375 337.734375 40.546875 338.238281 40.222656 C 338.746094 39.898438 339.238281 39.550781 339.710938 39.179688 C 340.183594 38.808594 340.640625 38.414062 341.074219 38 C 341.511719 37.585938 341.925781 37.152344 342.320312 36.699219 C 342.714844 36.246094 343.089844 35.773438 343.4375 35.285156 C 343.789062 34.792969 344.113281 34.289062 344.414062 33.769531 C 344.71875 33.25 344.992188 32.714844 345.246094 32.167969 C 345.496094 31.621094 345.71875 31.0625 345.917969 30.496094 C 346.113281 29.925781 346.285156 29.351562 346.425781 28.765625 C 346.570312 28.183594 346.683594 27.59375 346.769531 26.996094 C 346.855469 26.402344 346.914062 25.804688 346.945312 25.203125 C 346.972656 24.601562 346.972656 24 346.945312 23.398438 C 346.917969 22.796875 346.863281 22.199219 346.777344 21.605469 C 346.691406 21.007812 346.578125 20.417969 346.4375 19.835938 C 346.296875 19.25 346.128906 18.671875 345.933594 18.105469 C 345.734375 17.535156 345.511719 16.976562 345.261719 16.429688 C 345.015625 15.882812 344.738281 15.347656 344.4375 14.828125 C 344.136719 14.304688 343.8125 13.800781 343.464844 13.308594 C 343.117188 12.820312 342.746094 12.347656 342.351562 11.890625 C 341.957031 11.4375 341.542969 11 341.109375 10.585938 C 340.671875 10.171875 340.21875 9.777344 339.746094 9.40625 C 339.273438 9.03125 338.785156 8.683594 338.277344 8.359375 C 337.773438 8.03125 337.253906 7.730469 336.71875 7.457031 C 336.183594 7.179688 335.636719 6.929688 335.078125 6.707031 C 334.519531 6.484375 333.953125 6.285156 333.375 6.117188 C 332.796875 5.949219 332.214844 5.804688 331.621094 5.691406 C 331.03125 5.578125 330.4375 5.492188 329.835938 5.433594 C 329.238281 5.378906 328.640625 5.351562 328.039062 5.351562 Z M 46.503906 37.964844 C 46.476562 37.964844 46.453125 37.960938 46.425781 37.960938 C 49.3125 35.050781 51.222656 30.011719 51.222656 24.28125 C 51.222656 18.546875 49.3125 13.507812 46.429688 10.597656 C 46.453125 10.597656 46.476562 10.597656 46.503906 10.597656 C 47.402344 10.597656 48.292969 10.683594 49.171875 10.859375 C 50.054688 11.035156 50.910156 11.292969 51.738281 11.636719 C 52.570312 11.980469 53.359375 12.402344 54.105469 12.902344 C 54.851562 13.402344 55.542969 13.96875 56.179688 14.605469 C 56.816406 15.238281 57.382812 15.929688 57.882812 16.675781 C 58.378906 17.425781 58.800781 18.214844 59.144531 19.042969 C 59.488281 19.875 59.75 20.730469 59.925781 21.609375 C 60.101562 22.492188 60.1875 23.382812 60.1875 24.28125 C 60.1875 25.179688 60.101562 26.066406 59.925781 26.949219 C 59.75 27.832031 59.488281 28.6875 59.144531 29.515625 C 58.800781 30.347656 58.378906 31.136719 57.882812 31.882812 C 57.382812 32.628906 56.816406 33.320312 56.179688 33.957031 C 55.542969 34.589844 54.851562 35.15625 54.105469 35.65625 C 53.359375 36.15625 52.570312 36.578125 51.738281 36.921875 C 50.910156 37.265625 50.054688 37.523438 49.171875 37.699219 C 48.292969 37.875 47.402344 37.964844 46.503906 37.964844 Z M 200.953125 37.535156 C 200.953125 37.652344 200.914062 37.753906 200.828125 37.835938 C 200.746094 37.921875 200.644531 37.964844 200.527344 37.964844 L 174.015625 37.964844 C 173.898438 37.964844 173.796875 37.921875 173.710938 37.835938 C 173.628906 37.753906 173.585938 37.652344 173.585938 37.535156 L 173.585938 11.023438 C 173.585938 10.90625 173.628906 10.804688 173.710938 10.722656 C 173.796875 10.636719 173.898438 10.597656 174.015625 10.597656 L 200.527344 10.597656 C 200.644531 10.597656 200.746094 10.636719 200.828125 10.722656 C 200.914062 10.804688 200.953125 10.90625 200.953125 11.023438 Z M 324.984375 151.363281 C 325.105469 151.363281 325.203125 151.40625 325.289062 151.488281 C 325.371094 151.570312 325.414062 151.671875 325.414062 151.792969 L 325.414062 178.300781 C 325.414062 178.417969 325.371094 178.519531 325.289062 178.605469 C 325.203125 178.6875 325.105469 178.730469 324.984375 178.730469 L 298.476562 178.730469 C 298.355469 178.730469 298.257812 178.6875 298.171875 178.605469 C 298.089844 178.519531 298.046875 178.417969 298.046875 178.300781 L 298.046875 151.792969 C 298.046875 151.671875 298.089844 151.570312 298.171875 151.488281 C 298.257812 151.40625 298.355469 151.363281 298.476562 151.363281 Z M 328.039062 37.964844 C 328.011719 37.964844 327.988281 37.960938 327.960938 37.960938 C 330.847656 35.050781 332.753906 30.011719 332.753906 24.28125 C 332.753906 18.546875 330.847656 13.507812 327.960938 10.597656 C 327.988281 10.597656 328.011719 10.597656 328.039062 10.597656 C 328.9375 10.597656 329.824219 10.683594 330.707031 10.859375 C 331.589844 11.035156 332.445312 11.292969 333.273438 11.636719 C 334.105469 11.980469 334.890625 12.402344 335.640625 12.902344 C 336.386719 13.402344 337.078125 13.96875 337.714844 14.605469 C 338.347656 15.238281 338.914062 15.929688 339.414062 16.675781 C 339.914062 17.425781 340.335938 18.214844 340.679688 19.042969 C 341.023438 19.875 341.28125 20.730469 341.457031 21.609375 C 341.632812 22.492188 341.722656 23.382812 341.722656 24.28125 C 341.722656 25.179688 341.632812 26.066406 341.457031 26.949219 C 341.28125 27.832031 341.023438 28.6875 340.679688 29.515625 C 340.335938 30.347656 339.914062 31.136719 339.414062 31.882812 C 338.914062 32.628906 338.347656 33.320312 337.714844 33.957031 C 337.078125 34.589844 336.386719 35.15625 335.640625 35.65625 C 334.890625 36.15625 334.105469 36.578125 333.273438 36.921875 C 332.445312 37.265625 331.589844 37.523438 330.707031 37.699219 C 329.824219 37.875 328.9375 37.964844 328.039062 37.964844 Z M 328.039062 37.964844 " fill-opacity="1" fill-rule="nonzero"/></g></svg>