<svg xmlns="http://www.w3.org/2000/svg" xmlns:xlink="http://www.w3.org/1999/xlink" width="500" zoomAndPan="magnify" viewBox="0 0 375 374.999991" height="500" preserveAspectRatio="xMidYMid meet" version="1.0"><defs><clipPath id="6b3ca4a471"><path d="M 7.019531 18.75 L 367.769531 18.75 L 367.769531 356.25 L 7.019531 356.25 Z M 7.019531 18.75 " clip-rule="nonzero"/></clipPath></defs><path fill="#ffffff" d="M 220.945312 303.84375 C 221.238281 303.652344 221.820312 303.347656 222.554688 303.347656 C 223.039062 303.347656 223.582031 303.476562 224.160156 303.863281 C 231.203125 308.539062 235.535156 315.03125 237.035156 323.160156 C 237.066406 323.347656 237.089844 323.53125 237.101562 323.734375 C 237.261719 326.550781 236.761719 329.207031 235.886719 330.183594 C 235.722656 330.363281 235.53125 330.53125 234.960938 330.554688 C 234.609375 330.578125 234.171875 330.484375 233.683594 330.289062 C 231.234375 329.339844 222.976562 324.824219 219.683594 306.824219 C 219.371094 305.09375 220.464844 304.164062 220.945312 303.84375 Z M 230.5 338.492188 C 231.976562 339.066406 233.449219 339.359375 234.886719 339.359375 C 235.058594 339.359375 235.230469 339.351562 235.40625 339.34375 C 238.203125 339.203125 240.628906 338.0625 242.433594 336.058594 C 245.851562 332.246094 246.0625 326.382812 245.886719 323.246094 C 245.851562 322.671875 245.789062 322.105469 245.683594 321.558594 C 243.765625 311.152344 238.003906 302.496094 229.03125 296.535156 C 225.042969 293.886719 220.09375 293.875 216.109375 296.5 C 212.113281 299.132812 210.167969 303.695312 211.03125 308.40625 C 215.03125 330.28125 225.972656 336.734375 230.5 338.492188 " fill-opacity="1" fill-rule="nonzero"/><g clip-path="url(#6b3ca4a471)"><path fill="#ffffff" d="M 359.054688 171.808594 L 335.859375 171.808594 L 335.859375 152.066406 L 359.054688 152.066406 Z M 227.867188 158.816406 C 244.796875 124.34375 229.527344 103.542969 228.871094 102.671875 C 227.9375 101.4375 226.425781 100.792969 224.898438 100.953125 C 223.363281 101.117188 222.027344 102.074219 221.375 103.46875 L 189.605469 171.808594 L 175.902344 171.808594 L 175.902344 152.066406 L 188.90625 152.066406 C 191.339844 152.066406 193.308594 150.097656 193.308594 147.667969 C 193.308594 145.238281 191.339844 143.269531 188.90625 143.269531 L 111.921875 143.269531 L 111.921875 56.117188 L 199.097656 56.117188 L 199.097656 112.890625 C 199.097656 115.316406 201.066406 117.289062 203.496094 117.289062 C 205.921875 117.289062 207.894531 115.316406 207.894531 112.890625 L 207.894531 56.117188 L 295.070312 56.117188 L 295.070312 143.269531 L 245.214844 143.269531 C 242.785156 143.269531 240.816406 145.238281 240.816406 147.667969 C 240.816406 150.097656 242.785156 152.066406 245.214844 152.066406 L 263.078125 152.066406 L 263.078125 171.808594 L 221.132812 171.808594 Z M 205.085938 262.886719 C 211.074219 272.742188 218.855469 281.054688 228.195312 287.589844 C 235.769531 292.886719 241.851562 298.867188 246.277344 305.371094 C 251.53125 313.089844 253.71875 322.277344 252.429688 331.234375 C 251.46875 337.917969 248.738281 342.679688 244.324219 345.398438 C 241.085938 347.390625 236.953125 348.007812 232.699219 347.144531 C 213.917969 343.328125 208.367188 326.664062 206.855469 319.679688 C 206.007812 315.78125 205.042969 311.953125 203.980469 308.3125 C 197.261719 285.175781 183.035156 250.046875 182.433594 248.5625 C 181.316406 245.808594 181.261719 242.746094 182.285156 239.949219 L 186.242188 229.058594 L 205 262.738281 C 205.027344 262.785156 205.054688 262.835938 205.085938 262.886719 Z M 162.253906 180.605469 L 180.347656 219.519531 L 176.488281 230.132812 L 150.804688 180.605469 Z M 15.945312 152.066406 L 39.136719 152.066406 L 39.136719 171.808594 L 15.945312 171.808594 Z M 15.945312 27.582031 L 39.136719 27.582031 L 39.136719 47.320312 L 15.945312 47.320312 Z M 359.054688 47.320312 L 335.859375 47.320312 L 335.859375 27.582031 L 359.054688 27.582031 Z M 303.867188 143.269531 L 303.867188 56.117188 L 359.054688 56.117188 L 359.054688 143.269531 Z M 303.867188 152.066406 L 327.0625 152.066406 L 327.0625 171.808594 L 303.867188 171.808594 Z M 303.867188 47.320312 L 303.867188 27.582031 L 327.0625 27.582031 L 327.0625 47.320312 Z M 271.875 27.582031 L 295.070312 27.582031 L 295.070312 47.320312 L 271.875 47.320312 Z M 175.902344 27.582031 L 199.097656 27.582031 L 199.097656 47.320312 L 175.902344 47.320312 Z M 79.925781 152.066406 L 103.121094 152.066406 L 103.121094 171.808594 L 79.925781 171.808594 Z M 71.128906 152.066406 L 71.128906 171.808594 L 47.933594 171.808594 L 47.933594 152.066406 Z M 71.128906 47.320312 L 47.933594 47.320312 L 47.933594 27.582031 L 71.128906 27.582031 Z M 103.121094 47.320312 L 79.925781 47.320312 L 79.925781 27.582031 L 103.121094 27.582031 Z M 15.945312 56.117188 L 103.121094 56.117188 L 103.121094 143.269531 L 15.945312 143.269531 Z M 135.113281 171.808594 L 111.921875 171.808594 L 111.921875 152.066406 L 135.113281 152.066406 Z M 178.734375 195.183594 L 171.953125 180.605469 L 185.515625 180.605469 Z M 188.578125 215.480469 C 188.371094 215.265625 188.148438 215.074219 187.902344 214.90625 L 183.585938 205.613281 L 225.367188 115.761719 C 227.667969 123.527344 228.828125 136.898438 220.011719 154.855469 Z M 167.101562 152.066406 L 167.101562 171.808594 L 143.910156 171.808594 L 143.910156 152.066406 Z M 111.921875 47.320312 L 111.921875 27.582031 L 135.113281 27.582031 L 135.113281 47.320312 Z M 143.910156 47.320312 L 143.910156 27.582031 L 167.101562 27.582031 L 167.101562 47.320312 Z M 207.894531 47.320312 L 207.894531 27.582031 L 231.089844 27.582031 L 231.089844 47.320312 Z M 239.886719 47.320312 L 239.886719 27.582031 L 263.078125 27.582031 L 263.078125 47.320312 Z M 295.070312 152.066406 L 295.070312 171.808594 L 271.875 171.808594 L 271.875 152.066406 Z M 363.453125 18.785156 L 11.546875 18.785156 C 9.117188 18.785156 7.148438 20.757812 7.148438 23.183594 L 7.148438 176.207031 C 7.148438 178.632812 9.117188 180.605469 11.546875 180.605469 L 140.894531 180.605469 L 164.457031 226.03125 L 144.863281 258.320312 C 139.511719 267.125 132.570312 274.546875 124.230469 280.378906 C 115.78125 286.289062 108.949219 293.027344 103.917969 300.421875 C 97.425781 309.960938 94.734375 321.351562 96.332031 332.488281 C 98.015625 344.179688 103.894531 350.035156 108.535156 352.890625 C 112.222656 355.15625 116.539062 356.324219 121.066406 356.324219 C 122.863281 356.324219 124.6875 356.140625 126.519531 355.765625 C 151.050781 350.785156 157.742188 328.308594 159.210938 321.542969 C 160.015625 317.84375 160.929688 314.21875 161.933594 310.765625 C 164.933594 300.433594 168.78125 288.996094 173.367188 276.78125 C 173.367188 276.777344 173.367188 276.777344 173.367188 276.777344 L 173.863281 275.453125 C 174.722656 273.175781 173.578125 270.644531 171.300781 269.785156 C 169.027344 268.925781 166.488281 270.074219 165.632812 272.347656 L 165.132812 273.683594 C 165.128906 273.683594 165.128906 273.691406 165.121094 273.695312 C 160.464844 286.121094 156.546875 297.765625 153.484375 308.3125 C 152.425781 311.953125 151.460938 315.78125 150.617188 319.679688 C 149.101562 326.664062 143.550781 343.328125 124.769531 347.144531 C 120.515625 348.007812 116.386719 347.390625 113.144531 345.394531 C 108.726562 342.679688 106 337.917969 105.042969 331.234375 C 103.75 322.277344 105.9375 313.089844 111.191406 305.371094 C 115.617188 298.867188 121.703125 292.882812 129.273438 287.589844 C 138.617188 281.054688 146.394531 272.742188 152.386719 262.878906 L 169.195312 235.175781 L 172.851562 242.226562 C 172.558594 245.484375 173.03125 248.785156 174.28125 251.867188 C 174.878906 253.335938 188.9375 288.058594 195.535156 310.765625 C 196.539062 314.21875 197.453125 317.84375 198.253906 321.542969 C 199.726562 328.308594 206.417969 350.785156 230.945312 355.765625 C 232.78125 356.140625 234.609375 356.324219 236.40625 356.324219 C 240.929688 356.324219 245.25 355.15625 248.933594 352.890625 C 253.570312 350.035156 259.457031 344.179688 261.136719 332.488281 C 262.738281 321.351562 260.046875 309.960938 253.550781 300.421875 C 248.523438 293.03125 241.691406 286.289062 233.234375 280.378906 C 224.917969 274.566406 217.996094 267.167969 212.644531 258.382812 L 193.792969 224.535156 L 216.574219 180.605469 L 363.453125 180.605469 C 365.882812 180.605469 367.851562 178.632812 367.851562 176.207031 L 367.851562 23.183594 C 367.851562 20.757812 365.882812 18.785156 363.453125 18.785156 " fill-opacity="1" fill-rule="nonzero"/></g><path fill="#ffffff" d="M 137.785156 306.824219 C 134.496094 324.824219 126.238281 329.339844 123.789062 330.289062 C 123.296875 330.484375 122.867188 330.578125 122.503906 330.554688 C 121.941406 330.53125 121.746094 330.363281 121.582031 330.175781 C 120.710938 329.207031 120.207031 326.550781 120.367188 323.734375 C 120.378906 323.539062 120.398438 323.347656 120.433594 323.160156 C 121.933594 315.03125 126.261719 308.539062 133.308594 303.863281 C 134.765625 302.894531 136.039062 303.53125 136.523438 303.84375 C 137.007812 304.164062 138.097656 305.09375 137.785156 306.824219 Z M 128.441406 296.535156 C 119.464844 302.496094 113.703125 311.152344 111.78125 321.558594 C 111.683594 322.09375 111.613281 322.65625 111.585938 323.230469 C 111.40625 326.382812 111.613281 332.246094 115.035156 336.058594 C 116.839844 338.0625 119.269531 339.203125 122.0625 339.34375 C 122.0625 339.34375 122.066406 339.34375 122.066406 339.34375 C 122.238281 339.351562 122.410156 339.359375 122.585938 339.359375 C 124.015625 339.359375 125.492188 339.066406 126.976562 338.488281 C 131.496094 336.734375 142.4375 330.28125 146.4375 308.40625 C 147.300781 303.695312 145.355469 299.132812 141.363281 296.5 C 137.375 293.875 132.421875 293.886719 128.441406 296.535156 " fill-opacity="1" fill-rule="nonzero"/></svg>